<svg t="1640920438527" class="icon" viewBox="0 0 1024 1024" version="1.1" xmlns="http://www.w3.org/2000/svg" p-id="2468" width="200" height="200"><path d="M482.133333 855.466667a33.706667 33.706667 0 0 0-33.706666 33.706666v100.693334a33.706667 33.706667 0 0 0 33.706666 33.706666h100.693334a33.706667 33.706667 0 0 0 33.706666-33.706666v-100.693334a33.706667 33.706667 0 0 0-33.706666-33.706666h-25.173334a8.106667 8.106667 0 0 0-8.106666 8.533333v25.173333a16.64 16.64 0 0 1-17.066667 16.64 16.213333 16.213333 0 0 1-16.64-16.64v-25.173333a8.533333 8.533333 0 0 0-8.533333-8.533333z m-201.813333 0a33.28 33.28 0 0 0-33.28 33.706666v100.693334a33.28 33.28 0 0 0 33.28 33.706666h101.12a33.28 33.28 0 0 0 33.28-33.706666v-100.693334a33.28 33.28 0 0 0-33.28-33.706666h-25.173333a8.533333 8.533333 0 0 0-8.533334 8.533333v25.173333a17.066667 17.066667 0 0 1-33.706666 0v-25.173333a8.533333 8.533333 0 0 0-8.106667-8.533333z m0-201.813334a33.706667 33.706667 0 0 0-33.28 33.706667v101.12a33.28 33.28 0 0 0 33.28 33.28h101.12a33.28 33.28 0 0 0 33.28-33.28v-101.12a33.706667 33.706667 0 0 0-33.28-33.706667h-25.173333a8.533333 8.533333 0 0 0-8.533334 8.533334v25.173333a17.066667 17.066667 0 1 1-33.706666 0v-25.173333a8.533333 8.533333 0 0 0-8.106667-8.533334h-25.6z" p-id="2469"></path><path d="M731.306667 691.2h41.813333v93.866667h-41.813333zM648.96 691.2h41.813333v93.866667h-41.813333zM573.013333 691.2h41.813334v93.866667h-41.813334zM853.333333 691.2h-42.666666v93.866667h42.666666v85.333333a36.266667 36.266667 0 0 0 51.2 0l102.4-104.533333a36.693333 36.693333 0 0 0 0-52.053334l-102.4-104.106666a36.266667 36.266667 0 0 0-51.2 0z" p-id="2470"></path><path d="M994.56 225.28l-47.786667-22.613333-16.64-8.533334-34.133333-14.933333c-58.453333-25.6-133.973333-64-192.853333-87.466667L525.653333 11.946667c-32.426667-14.933333-24.32-14.933333-49.066666-4.266667L316.16 85.333333c-11.093333 5.12-21.333333 9.386667-32.426667 14.933334L29.013333 221.866667c-6.826667 4.266667-29.013333 10.666667-29.013333 19.2V1024h185.173333V384h651.946667v128H1024V243.2c0-9.386667-20.48-14.933333-29.44-17.92z" p-id="2471"></path></svg>