<svg t="1641872117587" class="icon" viewBox="0 0 1024 1024" version="1.1" xmlns="http://www.w3.org/2000/svg" p-id="2929" width="200" height="200"><path d="M490.496 50.176c95.232 0 192 80.896 223.744 186.368 28.16 93.184-6.144 186.88-93.184 255.488-77.312 60.928-161.28 66.048-247.808 15.36-161.792-95.232-157.184-321.024 10.24-422.912 31.744-19.456 65.536-29.696 107.008-34.304 1.536 3.072-1.024-2.56 0 0zM133.12 948.736c-1.024 0-2.048-0.512-3.072-0.512-74.24-15.872-77.824-21.504-54.784-91.648 15.36-47.616 29.696-95.232 46.592-141.824C148.48 640 205.824 601.6 281.6 598.016c88.576-4.608 177.664-2.048 266.752-1.024 30.72 0.512 35.84 10.752 23.04 38.912-3.072 7.168-7.168 13.824-11.264 20.48-51.712 83.456-68.608 172.544-45.056 269.312 9.728 39.936 2.048 47.104-38.4 48.128-20.48 0.512-40.96 0-61.44 0 0.512 0-195.072-15.36-282.112-25.088z m809.984-2.56V548.864l-55.808-37.376-202.752 90.624v70.144l-112.128 38.912v234.496h-11.264v27.648h36.864V727.04l148.992-48.64v294.912h101.888v-30.208h-23.04v-268.8l-53.76-32.768-60.416 20.992v-44.544l146.432-65.024v420.352h102.912v-27.648h-17.92v0.512z m-327.68-155.648l107.52-34.816V709.12l-107.52 37.376v44.032z m0 60.416l107.52-23.04v-46.592l-107.52 27.648v41.984z m0 62.464l107.52-13.824v-46.592l-107.52 16.384v44.032z m0 60.416l107.52-2.56v-46.08l-107.52 4.608v44.032z" p-id="2930"></path></svg>