<svg t="1640920486442" class="icon" viewBox="0 0 1024 1024" version="1.1" xmlns="http://www.w3.org/2000/svg" p-id="2621" width="200" height="200"><path d="M949.421222 895.696617a171.918736 171.918736 0 0 0 27.936795-94.125508 168.910159 168.910159 0 0 0-171.918737-171.918737h-3.438374a168.480362 168.480362 0 0 0-166.761175 171.918737v3.008578a168.050565 168.050565 0 0 0 171.918737 166.761174A171.918736 171.918736 0 0 0 902.573367 945.553051l68.767494 68.767494a32.66456 32.66456 0 0 0 46.418059 0 56.733183 56.733183 0 0 0 0-47.277652z m-142.692551 6.87675a102.291648 102.291648 0 1 1 0-204.1535 100.572461 100.572461 0 0 1 102.291648 102.291648A104.870429 104.870429 0 0 1 806.728671 902.573367zM238.967044 892.688039h127.219865v127.219865H238.967044zM366.186909 713.892553v127.219865H238.967044V713.462756h127.219865v0.429797zM421.630701 892.688039h127.219865v127.219865H421.630701zM548.850566 713.892553v127.219865H421.630701V713.462756h127.219865v0.429797zM494.696164 519.624381a109.598195 109.598195 0 0 0-9.45553-23.209029l23.209029-23.638827-42.979684-42.979684-23.209029 23.638827a109.598195 109.598195 0 0 0-23.20903-9.455531V412.604968H362.318737v33.094356a116.045147 116.045147 0 0 0-22.779232 9.455531L315.900678 429.796841l-42.979684 42.979684 23.638826 23.638827a90.687134 90.687134 0 0 0-9.45553 23.209029h-31.804966v58.022574h33.524153c0 3.868172 2.578781 7.736343 3.868172 11.604514l4.727765 9.455531-23.638826 23.638826 42.979684 42.979684 23.638826-23.638826 9.455531 4.727765 12.034311 4.297969v33.524153h58.882168v-33.524153l12.464108-4.297969 9.45553-4.727765 23.20903 23.638826 42.979684-42.979684-23.638826-20.630248a63.180136 63.180136 0 0 0 4.297968-9.455531c0-3.868172 3.008578-7.736343 4.297969-11.604514h33.094356v-61.031152h-33.094356z m-103.151242 101.861851a72.635666 72.635666 0 1 1 72.635667-72.635666 72.635666 72.635666 0 0 1-72.635667 72.635666z" p-id="2622"></path><path d="M988.532735 225.213545l-47.277653-22.779233-16.762076-8.16614-32.66456-15.042889c-58.45237-25.78781-133.237021-64.039729-191.689392-85.959368L521.343568 11.604515c-31.804966-14.613093-24.068623-14.613093-48.137246-3.868172L313.321897 85.959368c-10.744921 5.587359-20.630248 9.455531-31.804966 15.04289L28.796388 221.77517c-6.876749 4.297968-28.796388 10.744921-28.796388 19.340858v781.370657h183.523251V383.808579h646.844246v128.939053h183.953048V243.265012c0-9.885327-18.911061-15.042889-25.78781-18.051467z" p-id="2623"></path></svg>