<svg t="1640920421832" class="icon" viewBox="0 0 1024 1024" version="1.1" xmlns="http://www.w3.org/2000/svg" p-id="2315" width="200" height="200"><path d="M485.973333 853.333333a33.706667 33.706667 0 0 0-33.706666 33.706667v100.693333a33.706667 33.706667 0 0 0 33.706666 33.706667h100.693334a34.133333 34.133333 0 0 0 33.706666-33.706667v-99.413333a33.706667 33.706667 0 0 0-33.706666-33.706667h-25.173334a8.533333 8.533333 0 0 0-8.533333 8.533334v25.173333a17.066667 17.066667 0 0 1-33.706667 0v-25.173333A8.533333 8.533333 0 0 0 512 853.333333z m-201.813333 0a33.706667 33.706667 0 0 0-33.706667 33.706667v100.693333a34.133333 34.133333 0 0 0 33.706667 33.706667H384a33.706667 33.706667 0 0 0 33.706667-33.706667v-99.413333A33.706667 33.706667 0 0 0 384 853.333333h-24.32a8.106667 8.106667 0 0 0-8.106667 8.533334v25.173333a17.066667 17.066667 0 0 1-17.066666 16.64 16.64 16.64 0 0 1-16.64-16.64v-25.173333a8.533333 8.533333 0 0 0-8.533334-8.533334z m0-201.813333a34.133333 34.133333 0 0 0-33.706667 33.706667v100.693333a33.706667 33.706667 0 0 0 33.706667 33.706667H384a33.706667 33.706667 0 0 0 33.706667-33.706667v-99.413333A33.706667 33.706667 0 0 0 384 652.8h-24.32a8.106667 8.106667 0 0 0-8.106667 8.533333v25.173334a16.64 16.64 0 0 1-17.066666 16.64 16.213333 16.213333 0 0 1-16.64-16.64v-25.173334a8.533333 8.533333 0 0 0-8.533334-8.533333h-25.173333z" p-id="2316"></path><path d="M994.56 225.28l-47.786667-22.613333-16.64-8.533334-34.133333-14.933333c-58.453333-25.6-133.973333-64-192.853333-87.466667L525.653333 11.946667c-32.426667-14.933333-24.32-14.933333-49.066666-4.266667L316.16 85.333333c-11.093333 5.12-21.333333 9.386667-32.426667 14.933334L29.013333 221.866667c-6.826667 4.266667-29.013333 10.666667-29.013333 19.2V1024h185.173333V384h651.946667v128H1024V243.2c0-9.386667-20.48-14.933333-29.44-17.92zM823.04 662.186667h41.813333v93.866666h-41.813333zM904.96 662.186667h41.813333v93.866666h-41.813333zM980.906667 662.186667h41.813333v93.866666h-41.813333z" p-id="2317"></path><path d="M741.12 756.053333h42.666667v-93.866666h-42.666667v-83.2a36.266667 36.266667 0 0 0-51.2 0L587.093333 682.666667a36.693333 36.693333 0 0 0 0 51.626666l102.826667 104.533334a36.266667 36.266667 0 0 0 51.2 0z" p-id="2318"></path></svg>