<svg t="1640756726385" class="icon" viewBox="0 0 1024 1024" version="1.1" xmlns="http://www.w3.org/2000/svg" p-id="12126" width="200" height="200"><path d="M226.386108 1015.048798H19.262081A19.262081 19.262081 0 0 1 0 995.843369V299.405825h3.342538L465.065956 12.740734a84.97977 84.97977 0 0 1 89.625331 0l461.723419 286.665091H1019.757243v696.437544a19.262081 19.262081 0 0 1-19.262081 19.262082h-207.124027c3.059272-8.611283 4.702214-19.828613 4.702214-40.79029v-283.152595c0-28.553203-3.002619-38.920735-8.55463-49.34492a58.182816 58.182816 0 0 0-24.190908-24.190907c-10.480838-5.608665-20.791717-8.55463-49.34492-8.554631H303.774352c-28.553203 0-38.864082 2.945965-49.288267 8.497977a58.182816 58.182816 0 0 0-24.247561 24.247561c-5.552012 10.424185-8.55463 20.791717-8.55463 49.288267v283.152595c0 21.074983 1.642942 32.23566 4.702214 40.79029z m48.155203-319.977162h470.674621v79.144493H274.541311v-79.144493z m0 158.288985h470.674621v79.144493H274.541311v-79.144493z m109.73721-472.770788a31.329209 31.329209 0 1 0 0 62.601764h251.200201a31.329209 31.329209 0 1 0 0-62.601764H384.278521z" p-id="12127"></path></svg>